<?xml version="1.0" encoding="utf-8"?>
<!-- Generator: Adobe Illustrator 16.0.0, SVG Export Plug-In . SVG Version: 6.00 Build 0)  -->
<!DOCTYPE svg PUBLIC "-//W3C//DTD SVG 1.1//EN" "http://www.w3.org/Graphics/SVG/1.1/DTD/svg11.dtd">
<svg version="1.1" id="Layer_1" xmlns="http://www.w3.org/2000/svg" xmlns:xlink="http://www.w3.org/1999/xlink" x="0px" y="0px"
	 width="100px" height="100px" viewBox="0 0 100 100" style="enable-background:new 0 0 100 100;" xml:space="preserve">
<style type="text/css">
<![CDATA[
	.st0{fill:#3ABFE6;}
]]>
</style>
<path id="chart-6" class="st0" d="M21.196,79.999v7.5h-8.182v-7.5H21.196z M29.377,72.5H4.833V95h24.545L29.377,72.5L29.377,72.5z
	 M53.923,68.749v18.75h-8.181v-18.75H53.923z M62.104,61.25H37.559V95h24.544V61.25z M86.65,53.749v33.75h-8.18v-33.75H86.65z
	 M94.833,46.25H70.286V95h24.547V46.25z M94.833,5L70.286,9.579l7.021,6.407L49.286,41.235l-12.278-11.26L4.932,59.213l5.77,5.317
	l26.291-23.96L49.23,51.793L83.104,21.28l6.819,6.224L94.833,5z"/>
</svg>
