<?xml version="1.0" encoding="utf-8"?>
<!-- Generator: Adobe Illustrator 16.0.0, SVG Export Plug-In . SVG Version: 6.00 Build 0)  -->
<!DOCTYPE svg PUBLIC "-//W3C//DTD SVG 1.1//EN" "http://www.w3.org/Graphics/SVG/1.1/DTD/svg11.dtd">
<svg version="1.1" id="Layer_1" xmlns="http://www.w3.org/2000/svg" xmlns:xlink="http://www.w3.org/1999/xlink" x="0px" y="0px"
	 width="100px" height="100px" viewBox="0 0 100 100" style="enable-background:new 0 0 100 100;" xml:space="preserve">
<style type="text/css">
<![CDATA[
	.st0{fill:#3ABFE6;}
]]>
</style>
<path id="chart-6" class="st0" d="M25.969,63.499v6.25h-6.818v-6.25H25.969z M32.786,57.25H12.333V76h20.454L32.786,57.25
	L32.786,57.25z M53.241,54.124v15.625h-6.817V54.124H53.241z M60.059,47.875H39.604V76h20.454V47.875L60.059,47.875z M80.514,41.624
	v28.125h-6.816V41.624H80.514z M87.333,35.375H66.877V76h20.456V35.375z M87.333,1L66.877,4.816l5.851,5.339l-23.35,21.041
	l-10.232-9.383l-26.73,24.365l4.809,4.43l21.909-19.966l10.197,9.353l28.228-25.428l5.683,5.187L87.333,1z"/>
<g>
	<path class="st0" d="M7.068,89.105V92H5.012v-8.531h3.404c0.652,0,1.229,0.12,1.731,0.36s0.891,0.582,1.166,1.025
		s0.413,0.946,0.413,1.509c0,0.832-0.298,1.497-0.894,1.995s-1.413,0.747-2.452,0.747H7.068z M7.068,87.518h1.348
		c0.398,0,0.702-0.1,0.911-0.299s0.313-0.48,0.313-0.844c0-0.398-0.107-0.717-0.322-0.955s-0.508-0.359-0.879-0.363H7.068V87.518z"
		/>
	<path class="st0" d="M15.992,88.982h-1.113V92h-2.057v-8.531h3.357c1.012,0,1.803,0.225,2.373,0.673
		c0.57,0.449,0.855,1.083,0.855,1.902c0,0.594-0.12,1.085-0.36,1.476c-0.24,0.39-0.616,0.706-1.128,0.948l1.781,3.444V92h-2.203
		L15.992,88.982z M14.879,87.4h1.301c0.391,0,0.685-0.103,0.882-0.309c0.197-0.205,0.296-0.492,0.296-0.86s-0.1-0.657-0.299-0.866
		c-0.199-0.21-0.492-0.314-0.879-0.314h-1.301V87.4z"/>
	<path class="st0" d="M27.875,87.91c0,0.832-0.154,1.568-0.463,2.209s-0.747,1.134-1.315,1.479s-1.216,0.519-1.942,0.519
		s-1.371-0.167-1.934-0.501s-1.001-0.812-1.315-1.433s-0.479-1.334-0.495-2.139v-0.48c0-0.836,0.153-1.573,0.46-2.212
		s0.746-1.132,1.318-1.479s1.224-0.521,1.954-0.521c0.723,0,1.367,0.172,1.934,0.516s1.007,0.833,1.321,1.468
		s0.474,1.362,0.478,2.183V87.91z M25.783,87.553c0-0.848-0.142-1.491-0.425-1.931s-0.688-0.659-1.216-0.659
		c-1.031,0-1.576,0.773-1.635,2.32l-0.006,0.627c0,0.836,0.139,1.479,0.416,1.928s0.689,0.674,1.236,0.674
		c0.52,0,0.92-0.221,1.201-0.662s0.424-1.076,0.428-1.904V87.553z"/>
	<path class="st0" d="M35.92,90.945c-0.316,0.352-0.779,0.635-1.389,0.85s-1.277,0.322-2.004,0.322c-1.117,0-2.01-0.342-2.678-1.025
		s-1.025-1.635-1.072-2.854L28.771,87.5c0-0.84,0.148-1.573,0.445-2.2s0.722-1.109,1.274-1.447s1.192-0.507,1.919-0.507
		c1.063,0,1.888,0.243,2.476,0.729s0.931,1.212,1.028,2.177h-1.98c-0.07-0.477-0.223-0.816-0.457-1.02s-0.566-0.305-0.996-0.305
		c-0.516,0-0.914,0.219-1.195,0.656s-0.424,1.063-0.428,1.875v0.516c0,0.852,0.146,1.491,0.437,1.919s0.749,0.642,1.374,0.642
		c0.535,0,0.934-0.119,1.195-0.357v-1.324h-1.43v-1.412h3.486V90.945z"/>
	<path class="st0" d="M40.285,88.982h-1.113V92h-2.057v-8.531h3.357c1.012,0,1.803,0.225,2.373,0.673
		c0.57,0.449,0.855,1.083,0.855,1.902c0,0.594-0.12,1.085-0.36,1.476c-0.24,0.39-0.616,0.706-1.128,0.948l1.781,3.444V92h-2.203
		L40.285,88.982z M39.172,87.4h1.301c0.391,0,0.685-0.103,0.882-0.309c0.197-0.205,0.296-0.492,0.296-0.86s-0.1-0.657-0.299-0.866
		c-0.199-0.21-0.492-0.314-0.879-0.314h-1.301V87.4z"/>
	<path class="st0" d="M50.234,88.379H47v2.039h3.82V92h-5.877v-8.531h5.889v1.588H47v1.799h3.234V88.379z"/>
	<path class="st0" d="M56.059,89.732c0-0.301-0.106-0.535-0.319-0.703s-0.587-0.342-1.122-0.521s-0.973-0.354-1.313-0.521
		c-1.105-0.543-1.658-1.289-1.658-2.238c0-0.473,0.138-0.89,0.413-1.251s0.665-0.643,1.169-0.844s1.07-0.302,1.699-0.302
		c0.613,0,1.163,0.109,1.649,0.328s0.864,0.53,1.134,0.935S58.115,85.48,58.115,86h-2.051c0-0.348-0.106-0.617-0.319-0.809
		s-0.501-0.287-0.864-0.287c-0.367,0-0.657,0.081-0.87,0.243s-0.319,0.368-0.319,0.618c0,0.219,0.117,0.417,0.352,0.595
		s0.646,0.361,1.236,0.551s1.074,0.394,1.453,0.612c0.922,0.531,1.383,1.264,1.383,2.197c0,0.746-0.281,1.332-0.844,1.758
		s-1.334,0.639-2.314,0.639c-0.691,0-1.317-0.124-1.878-0.372s-0.982-0.588-1.266-1.02s-0.425-0.929-0.425-1.491h2.063
		c0,0.457,0.118,0.794,0.354,1.011s0.62,0.325,1.151,0.325c0.34,0,0.608-0.073,0.806-0.22S56.059,89.998,56.059,89.732z"/>
	<path class="st0" d="M63.57,89.732c0-0.301-0.106-0.535-0.319-0.703s-0.587-0.342-1.122-0.521s-0.973-0.354-1.313-0.521
		c-1.105-0.543-1.658-1.289-1.658-2.238c0-0.473,0.138-0.89,0.413-1.251s0.665-0.643,1.169-0.844s1.07-0.302,1.699-0.302
		c0.613,0,1.163,0.109,1.649,0.328s0.864,0.53,1.134,0.935S65.627,85.48,65.627,86h-2.051c0-0.348-0.106-0.617-0.319-0.809
		s-0.501-0.287-0.864-0.287c-0.367,0-0.657,0.081-0.87,0.243s-0.319,0.368-0.319,0.618c0,0.219,0.117,0.417,0.352,0.595
		s0.646,0.361,1.236,0.551s1.074,0.394,1.453,0.612c0.922,0.531,1.383,1.264,1.383,2.197c0,0.746-0.281,1.332-0.844,1.758
		s-1.334,0.639-2.314,0.639c-0.691,0-1.317-0.124-1.878-0.372s-0.982-0.588-1.266-1.02S58.9,89.797,58.9,89.234h2.063
		c0,0.457,0.118,0.794,0.354,1.011s0.62,0.325,1.151,0.325c0.34,0,0.608-0.073,0.806-0.22S63.57,89.998,63.57,89.732z"/>
	<path class="st0" d="M72.371,83.469l1.904,5.936l1.898-5.936h2.707V92h-2.063v-1.992l0.199-4.078L74.955,92h-1.359l-2.068-6.076
		l0.199,4.084V92H69.67v-8.531H72.371z"/>
	<path class="st0" d="M85.139,90.406H82.32L81.828,92h-2.197l3.129-8.531h1.934L87.846,92h-2.209L85.139,90.406z M82.813,88.818
		h1.834l-0.92-2.959L82.813,88.818z"/>
	<path class="st0" d="M90.523,89.105V92h-2.057v-8.531h3.404c0.652,0,1.229,0.12,1.731,0.36s0.891,0.582,1.166,1.025
		s0.413,0.946,0.413,1.509c0,0.832-0.298,1.497-0.894,1.995s-1.413,0.747-2.452,0.747H90.523z M90.523,87.518h1.348
		c0.398,0,0.702-0.1,0.911-0.299s0.313-0.48,0.313-0.844c0-0.398-0.107-0.717-0.322-0.955s-0.508-0.359-0.879-0.363h-1.371V87.518z"
		/>
</g>
</svg>
