<?xml version="1.0" encoding="utf-8"?>
<!-- Generator: Adobe Illustrator 16.0.0, SVG Export Plug-In . SVG Version: 6.00 Build 0)  -->
<!DOCTYPE svg PUBLIC "-//W3C//DTD SVG 1.1//EN" "http://www.w3.org/Graphics/SVG/1.1/DTD/svg11.dtd">
<svg version="1.1" id="Layer_1" xmlns="http://www.w3.org/2000/svg" xmlns:xlink="http://www.w3.org/1999/xlink" x="0px" y="0px"
	 width="100px" height="100px" viewBox="0 0 100 100" style="enable-background:new 0 0 100 100;" xml:space="preserve">
<style type="text/css">
<![CDATA[
	.st0{fill:#3ABFE6;}
]]>
</style>
<path id="speech-bubble-26" class="st0" d="M41.666,12.565c18.379,0,33.332,11.653,33.332,25.976
	c0,12.417-12.622,25.816-33.02,25.816c-6.583,0-11.323-1.299-15.49-2.293c-4.023,2.425-5.232,3.327-12.523,5.617
	c1.729-6.209,1.51-8.926,1.379-13.024c-3.491-4.095-7.01-8.465-7.01-16.116C8.333,24.218,23.287,12.565,41.666,12.565z
	 M41.666,4.375C19.661,4.375,0,18.801,0,38.541c0,6.999,2.563,13.871,7.104,19.208C7.3,63.997,3.561,72.958,0.184,79.481
	c9.033-1.598,21.883-5.146,27.705-8.653c4.919,1.183,9.635,1.722,14.09,1.722c24.597,0,41.353-16.52,41.353-34.009
	C83.331,18.693,63.536,4.375,41.666,4.375z M89.728,50.086c-0.671,1.998-1.506,3.932-2.502,5.793
	c6.986,5.161,9.402,13.195,1.933,21.948c-0.086,3.049-0.204,4.291,0.573,7.631c-3.715-1.254-4.077-1.602-6.938-3.328
	c-8.862,2.122-17.769,2.849-25.369-3.499c-2.344,0.651-4.769,1.139-7.251,1.49c6.303,7.678,17.907,11.853,31.57,8.589
	c3.809,2.293,12.219,4.61,18.131,5.665c-2.209-4.274-4.654-10.14-4.532-14.234C102.654,71.563,101.771,57.908,89.728,50.086z
	 M27.083,34.693c-2.462,0-4.464,1.961-4.464,4.382s2.002,4.383,4.464,4.383s4.464-1.962,4.464-4.383S29.545,34.693,27.083,34.693z
	 M41.666,34.693c-2.462,0-4.464,1.961-4.464,4.382s2.002,4.383,4.464,4.383c2.461,0,4.463-1.962,4.463-4.383
	S44.127,34.693,41.666,34.693z M56.249,34.693c-2.462,0-4.464,1.961-4.464,4.382s2.002,4.383,4.464,4.383
	c2.461,0,4.463-1.962,4.463-4.383S58.71,34.693,56.249,34.693z"/>
</svg>
