<?xml version="1.0" encoding="utf-8"?>
<!-- Generator: Adobe Illustrator 16.0.0, SVG Export Plug-In . SVG Version: 6.00 Build 0)  -->
<!DOCTYPE svg PUBLIC "-//W3C//DTD SVG 1.1//EN" "http://www.w3.org/Graphics/SVG/1.1/DTD/svg11.dtd">
<svg version="1.1" id="Layer_1" xmlns="http://www.w3.org/2000/svg" xmlns:xlink="http://www.w3.org/1999/xlink" x="0px" y="0px"
	 width="100px" height="100px" viewBox="0 0 100 100" style="enable-background:new 0 0 100 100;" xml:space="preserve">
<style type="text/css">
<![CDATA[
	.st0{opacity:0.97;fill:#3ABFE6;}
	.st1{fill:#3ABFE6;}
]]>
</style>
<path id="speech-bubble-26" class="st0" d="M42.916,7.825c15.621,0,28.333,9.71,28.333,21.647c0,10.347-10.729,21.514-28.068,21.514
	c-5.595,0-9.625-1.083-13.167-1.912c-3.419,2.021-4.447,2.772-10.645,4.682c1.47-5.174,1.284-7.438,1.172-10.854
	c-2.967-3.412-5.958-7.054-5.958-13.43C14.583,17.535,27.294,7.825,42.916,7.825z M42.916,1C24.212,1,7.5,13.022,7.5,29.472
	c0,5.832,2.179,11.559,6.039,16.005c0.166,5.208-3.012,12.675-5.882,18.109c7.678-1.33,18.6-4.287,23.549-7.209
	c4.181,0.984,8.19,1.435,11.976,1.435c20.907,0,35.15-13.767,35.15-28.34C78.33,12.932,61.506,1,42.916,1z M83.77,39.092
	c-0.571,1.666-1.28,3.277-2.127,4.828c5.938,4.301,7.991,10.995,1.643,18.29c-0.074,2.541-0.174,3.575,0.488,6.358
	c-3.158-1.044-3.468-1.335-5.898-2.772c-7.532,1.769-15.104,2.374-21.564-2.915c-1.992,0.542-4.053,0.948-6.163,1.241
	c5.357,6.397,15.22,9.878,26.835,7.156c3.237,1.911,10.386,3.843,15.41,4.722c-1.878-3.562-3.955-8.45-3.854-11.862
	C94.757,56.989,94.006,45.611,83.77,39.092z M30.521,26.265c-2.093,0-3.794,1.634-3.794,3.652c0,2.017,1.702,3.652,3.794,3.652
	s3.794-1.635,3.794-3.652C34.315,27.899,32.613,26.265,30.521,26.265z M42.916,26.265c-2.093,0-3.794,1.634-3.794,3.652
	c0,2.017,1.701,3.652,3.794,3.652c2.092,0,3.793-1.635,3.793-3.652C46.709,27.899,45.008,26.265,42.916,26.265z M55.312,26.265
	c-2.093,0-3.794,1.634-3.794,3.652c0,2.017,1.701,3.652,3.794,3.652c2.092,0,3.794-1.635,3.794-3.652
	C59.105,27.899,57.403,26.265,55.312,26.265z"/>
<g>
	<path class="st1" d="M20.313,89.111c-0.027,0.594-0.188,1.118-0.48,1.573s-0.704,0.808-1.233,1.058s-1.134,0.375-1.813,0.375
		c-1.121,0-2.004-0.365-2.648-1.096s-0.967-1.762-0.967-3.094v-0.422c0-0.836,0.146-1.567,0.437-2.194s0.71-1.111,1.257-1.453
		s1.18-0.513,1.898-0.513c1.035,0,1.867,0.272,2.496,0.817s0.986,1.296,1.072,2.253H18.28c-0.016-0.52-0.146-0.893-0.393-1.119
		s-0.621-0.34-1.125-0.34c-0.512,0-0.887,0.191-1.125,0.574s-0.363,0.994-0.375,1.834v0.604c0,0.91,0.114,1.561,0.343,1.951
		s0.622,0.586,1.181,0.586c0.473,0,0.834-0.111,1.084-0.334s0.383-0.576,0.398-1.061H20.313z"/>
	<path class="st1" d="M28.511,87.91c0,0.832-0.154,1.568-0.463,2.209s-0.747,1.134-1.315,1.479s-1.216,0.519-1.942,0.519
		s-1.371-0.167-1.934-0.501s-1.001-0.812-1.315-1.433s-0.479-1.334-0.495-2.139v-0.48c0-0.836,0.153-1.573,0.46-2.212
		s0.746-1.132,1.318-1.479s1.224-0.521,1.954-0.521c0.723,0,1.367,0.172,1.934,0.516s1.007,0.833,1.321,1.468
		s0.474,1.362,0.478,2.183V87.91z M26.419,87.553c0-0.848-0.142-1.491-0.425-1.931s-0.688-0.659-1.216-0.659
		c-1.031,0-1.576,0.773-1.635,2.32l-0.006,0.627c0,0.836,0.139,1.479,0.416,1.928s0.689,0.674,1.236,0.674
		c0.52,0,0.92-0.221,1.201-0.662s0.424-1.076,0.428-1.904V87.553z"/>
	<path class="st1" d="M36.696,92h-2.045l-3.023-5.309V92h-2.057v-8.531h2.057l3.018,5.309v-5.309h2.051V92z"/>
	<path class="st1" d="M44.524,85.057h-2.561V92h-2.057v-6.943h-2.514v-1.588h7.131V85.057z"/>
	<path class="st1" d="M49.534,90.406h-2.818L46.224,92h-2.197l3.129-8.531h1.934L52.241,92h-2.209L49.534,90.406z M47.208,88.818
		h1.834l-0.92-2.959L47.208,88.818z"/>
	<path class="st1" d="M59.642,89.111c-0.027,0.594-0.188,1.118-0.48,1.573s-0.704,0.808-1.233,1.058s-1.134,0.375-1.813,0.375
		c-1.121,0-2.004-0.365-2.648-1.096s-0.967-1.762-0.967-3.094v-0.422c0-0.836,0.146-1.567,0.437-2.194s0.71-1.111,1.257-1.453
		s1.18-0.513,1.898-0.513c1.035,0,1.867,0.272,2.496,0.817s0.986,1.296,1.072,2.253h-2.051c-0.016-0.52-0.146-0.893-0.393-1.119
		s-0.621-0.34-1.125-0.34c-0.512,0-0.887,0.191-1.125,0.574s-0.363,0.994-0.375,1.834v0.604c0,0.91,0.114,1.561,0.343,1.951
		s0.622,0.586,1.181,0.586c0.473,0,0.834-0.111,1.084-0.334s0.383-0.576,0.398-1.061H59.642z"/>
	<path class="st1" d="M67.142,85.057h-2.561V92h-2.057v-6.943h-2.514v-1.588h7.131V85.057z"/>
	<path class="st1" d="M73.347,83.469l1.904,5.936l1.898-5.936h2.707V92h-2.063v-1.992l0.199-4.078L75.931,92h-1.359l-2.068-6.076
		l0.199,4.084V92h-2.057v-8.531H73.347z"/>
	<path class="st1" d="M86.454,88.379H83.22v2.039h3.82V92h-5.877v-8.531h5.889v1.588H83.22v1.799h3.234V88.379z"/>
</g>
</svg>
