<?xml version="1.0" encoding="utf-8"?>
<!-- Generator: Adobe Illustrator 16.0.0, SVG Export Plug-In . SVG Version: 6.00 Build 0)  -->
<!DOCTYPE svg PUBLIC "-//W3C//DTD SVG 1.1//EN" "http://www.w3.org/Graphics/SVG/1.1/DTD/svg11.dtd">
<svg version="1.1" id="Layer_1" xmlns="http://www.w3.org/2000/svg" xmlns:xlink="http://www.w3.org/1999/xlink" x="0px" y="0px"
	 width="100px" height="100px" viewBox="0 0 100 100" style="enable-background:new 0 0 100 100;" xml:space="preserve">
<style type="text/css">
<![CDATA[
	.st0{fill:#3ABFE6;}
]]>
</style>
<path id="help-3" class="st0" d="M50,8.333c22.974,0,41.667,18.691,41.667,41.667c0,22.978-18.693,41.667-41.667,41.667
	S8.333,72.978,8.333,50C8.333,27.024,27.026,8.333,50,8.333z M50,0C22.388,0,0,22.386,0,50c0,27.612,22.388,50,50,50
	s50-22.388,50-50C100,22.386,77.612,0,50,0z M55.208,70.833c0,2.877-2.327,5.213-5.208,5.213c-2.873,0-5.209-2.336-5.209-5.213
	c0-2.876,2.336-5.212,5.209-5.212C52.881,65.621,55.208,67.957,55.208,70.833z M61.011,29.177
	c-2.535-2.565-6.312-3.979-10.628-3.979c-9.082,0-14.958,6.459-14.958,16.459h8.378c0-6.191,3.455-8.386,6.408-8.386
	c2.642,0,5.445,1.753,5.685,5.108c0.261,3.528-1.623,5.32-4.008,7.589c-5.884,5.595-5.993,8.305-5.965,14.449h8.354
	c-0.053-2.768,0.126-5.014,3.895-9.074c2.819-3.042,6.327-6.826,6.4-12.592C64.616,34.894,63.387,31.583,61.011,29.177z"/>
</svg>
