<?xml version="1.0" encoding="utf-8"?>
<!-- Generator: Adobe Illustrator 16.0.0, SVG Export Plug-In . SVG Version: 6.00 Build 0)  -->
<!DOCTYPE svg PUBLIC "-//W3C//DTD SVG 1.1//EN" "http://www.w3.org/Graphics/SVG/1.1/DTD/svg11.dtd">
<svg version="1.1" id="Layer_1" xmlns="http://www.w3.org/2000/svg" xmlns:xlink="http://www.w3.org/1999/xlink" x="0px" y="0px"
	 width="100px" height="100px" viewBox="0 0 100 100" style="enable-background:new 0 0 100 100;" xml:space="preserve">
<style type="text/css">
<![CDATA[
	.st0{fill:#3ABFE6;}
]]>
</style>
<path id="help-3" class="st0" d="M50,7.25c17.23,0,31.25,14.018,31.25,31.25c0,17.234-14.02,31.25-31.25,31.25
	S18.75,55.734,18.75,38.5C18.75,21.268,32.77,7.25,50,7.25z M50,1C29.291,1,12.5,17.789,12.5,38.5C12.5,59.21,29.291,76,50,76
	c20.71,0,37.5-16.79,37.5-37.5C87.5,17.789,70.71,1,50,1z M53.906,54.125c0,2.157-1.746,3.909-3.906,3.909
	c-2.155,0-3.907-1.753-3.907-3.909s1.752-3.909,3.907-3.909C52.16,50.216,53.906,51.968,53.906,54.125z M58.259,22.882
	c-1.901-1.924-4.735-2.984-7.971-2.984c-6.812,0-11.219,4.844-11.219,12.344h6.284c0-4.644,2.591-6.291,4.806-6.291
	c1.981,0,4.084,1.315,4.265,3.831c0.194,2.646-1.218,3.99-3.006,5.692c-4.414,4.195-4.495,6.23-4.475,10.836h6.267
	c-0.041-2.076,0.093-3.761,2.92-6.805c2.115-2.282,4.745-5.12,4.801-9.444C60.962,27.171,60.04,24.688,58.259,22.882z"/>
<g>
	<path class="st0" d="M41.281,88.602h-3.316V92h-2.057v-8.531h5.707v1.588h-3.65v1.963h3.316V88.602z"/>
	<path class="st0" d="M46.191,90.406h-2.818L42.881,92h-2.197l3.129-8.531h1.934L48.898,92h-2.209L46.191,90.406z M43.865,88.818
		h1.834l-0.92-2.959L43.865,88.818z"/>
	<path class="st0" d="M56.633,87.91c0,0.789-0.131,1.478-0.393,2.065s-0.623,1.06-1.084,1.415l1.377,1.09l-1.271,1.078l-1.834-1.477
		c-0.172,0.023-0.344,0.035-0.516,0.035c-0.727,0-1.371-0.168-1.934-0.504s-1.001-0.816-1.315-1.441s-0.478-1.344-0.489-2.156
		v-0.451c0-0.84,0.153-1.578,0.46-2.215s0.744-1.129,1.313-1.477s1.22-0.521,1.954-0.521c0.723,0,1.367,0.172,1.934,0.516
		s1.007,0.833,1.321,1.468s0.474,1.362,0.478,2.183V87.91z M54.541,87.553c0-0.848-0.142-1.491-0.425-1.931
		s-0.688-0.659-1.216-0.659c-0.543,0-0.951,0.217-1.225,0.65s-0.412,1.068-0.416,1.904v0.393c0,0.84,0.139,1.483,0.416,1.931
		s0.689,0.671,1.236,0.671c0.523,0,0.925-0.221,1.204-0.662s0.421-1.076,0.425-1.904V87.553z"/>
	<path class="st0" d="M58.291,86.141l-0.867-0.469c0.324-0.563,0.49-1.113,0.498-1.652V83h1.441v0.955
		c0,0.363-0.104,0.751-0.313,1.163S58.588,85.871,58.291,86.141z"/>
	<path class="st0" d="M62.463,90.219c0-0.168-0.088-0.303-0.264-0.404s-0.51-0.207-1.002-0.316s-0.898-0.253-1.219-0.431
		s-0.564-0.394-0.732-0.647s-0.252-0.545-0.252-0.873c0-0.582,0.24-1.062,0.721-1.438s1.109-0.565,1.887-0.565
		c0.836,0,1.508,0.189,2.016,0.568s0.762,0.877,0.762,1.494h-1.98c0-0.508-0.268-0.762-0.803-0.762
		c-0.207,0-0.381,0.058-0.521,0.173s-0.211,0.259-0.211,0.431c0,0.176,0.086,0.318,0.258,0.428s0.446,0.199,0.823,0.27
		s0.708,0.154,0.993,0.252c0.953,0.328,1.43,0.916,1.43,1.764c0,0.578-0.257,1.049-0.771,1.412s-1.179,0.545-1.995,0.545
		c-0.543,0-1.027-0.098-1.453-0.293s-0.758-0.461-0.996-0.797s-0.357-0.689-0.357-1.061h1.846c0.008,0.293,0.105,0.507,0.293,0.642
		s0.428,0.202,0.721,0.202c0.27,0,0.472-0.055,0.606-0.164S62.463,90.395,62.463,90.219z"/>
</g>
</svg>
