<?xml version="1.0" encoding="utf-8"?>
<!-- Generator: Adobe Illustrator 16.0.0, SVG Export Plug-In . SVG Version: 6.00 Build 0)  -->
<!DOCTYPE svg PUBLIC "-//W3C//DTD SVG 1.1//EN" "http://www.w3.org/Graphics/SVG/1.1/DTD/svg11.dtd">
<svg version="1.1" id="Layer_1" xmlns="http://www.w3.org/2000/svg" xmlns:xlink="http://www.w3.org/1999/xlink" x="0px" y="0px"
	 width="100px" height="100px" viewBox="0 0 100 100" style="enable-background:new 0 0 100 100;" xml:space="preserve">
<style type="text/css">
<![CDATA[
	.st0{fill:#3ABFE6;}
]]>
</style>
<path id="help-3" class="st0" d="M50,12.5c20.677,0,37.5,16.822,37.5,37.5c0,20.681-16.823,37.5-37.5,37.5S12.5,70.681,12.5,50
	C12.5,29.321,29.323,12.5,50,12.5z M50,5C25.149,5,5,25.147,5,50c0,24.851,20.149,45,45,45s45-20.149,45-45C95,25.147,74.851,5,50,5
	z M54.688,68.75c0,2.589-2.095,4.691-4.688,4.691c-2.586,0-4.688-2.103-4.688-4.691s2.102-4.691,4.688-4.691
	C52.593,64.059,54.688,66.161,54.688,68.75z M59.91,31.259c-2.281-2.309-5.681-3.581-9.565-3.581
	c-8.174,0-13.462,5.813-13.462,14.813h7.541c0-5.572,3.109-7.548,5.767-7.548c2.378,0,4.901,1.578,5.117,4.597
	c0.234,3.175-1.461,4.788-3.606,6.83c-5.297,5.035-5.395,7.475-5.37,13.004h7.519c-0.048-2.491,0.112-4.513,3.505-8.166
	c2.538-2.738,5.694-6.144,5.761-11.333C63.154,36.405,62.048,33.425,59.91,31.259z"/>
</svg>
