<?xml version="1.0" encoding="utf-8"?>
<!-- Generator: Adobe Illustrator 16.0.0, SVG Export Plug-In . SVG Version: 6.00 Build 0)  -->
<!DOCTYPE svg PUBLIC "-//W3C//DTD SVG 1.1//EN" "http://www.w3.org/Graphics/SVG/1.1/DTD/svg11.dtd">
<svg version="1.1" id="Layer_1" xmlns="http://www.w3.org/2000/svg" xmlns:xlink="http://www.w3.org/1999/xlink" x="0px" y="0px"
	 width="100px" height="100px" viewBox="0 0 100 100" style="enable-background:new 0 0 100 100;" xml:space="preserve">
<style type="text/css">
<![CDATA[
	.st0{fill:#3ABFE6;}
]]>
</style>
<path id="connection-4" class="st0" d="M50,58.143l4.572-14.285H39.375l23.318-25l-4.868,14.285H71.25L50,58.143z M55.313,1
	C36.583,1,21.138,14.978,18.561,33.142H7.5l14.167,21.128l14.167-21.128H25.751c2.518-14.184,14.782-25,29.562-25
	c16.599,0,30.104,13.618,30.104,30.358c0,16.737-13.506,30.357-30.104,30.357c-10.677,0-20.053-5.654-25.397-14.128l-4.25,6.336
	C32.451,70.12,43.189,76,55.313,76C75.842,76,92.5,59.207,92.5,38.5C92.5,17.793,75.842,1,55.313,1z"/>
<g>
	<path class="st0" d="M10.027,83.469h2.051v5.854c0,0.543-0.126,1.027-0.378,1.453s-0.604,0.756-1.055,0.99
		s-0.954,0.352-1.509,0.352c-0.93,0-1.652-0.234-2.168-0.703s-0.773-1.133-0.773-1.992h2.063c0,0.391,0.067,0.674,0.202,0.85
		s0.36,0.264,0.677,0.264c0.285,0,0.505-0.106,0.659-0.319s0.231-0.511,0.231-0.894V83.469z"/>
	<path class="st0" d="M20.598,87.91c0,0.832-0.154,1.568-0.463,2.209s-0.747,1.134-1.315,1.479s-1.216,0.519-1.942,0.519
		s-1.371-0.167-1.934-0.501s-1.001-0.812-1.315-1.433s-0.479-1.334-0.495-2.139v-0.48c0-0.836,0.153-1.573,0.46-2.212
		s0.746-1.132,1.318-1.479s1.224-0.521,1.954-0.521c0.723,0,1.367,0.172,1.934,0.516s1.007,0.833,1.321,1.468
		s0.474,1.362,0.478,2.183V87.91z M18.506,87.553c0-0.848-0.142-1.491-0.425-1.931s-0.688-0.659-1.216-0.659
		c-1.031,0-1.576,0.773-1.635,2.32l-0.006,0.627c0,0.836,0.139,1.479,0.416,1.928s0.689,0.674,1.236,0.674
		c0.52,0,0.92-0.221,1.201-0.662s0.424-1.076,0.428-1.904V87.553z"/>
	<path class="st0" d="M23.85,92h-2.051v-8.531h2.051V92z"/>
	<path class="st0" d="M32.404,92h-2.045l-3.023-5.309V92h-2.057v-8.531h2.057l3.018,5.309v-5.309h2.051V92z"/>
	<path class="st0" d="M43.039,85.057h-2.561V92h-2.057v-6.943h-2.514v-1.588h7.131V85.057z"/>
	<path class="st0" d="M51.037,92h-2.045v-3.563h-3.029V92h-2.057v-8.531h2.057v3.387h3.029v-3.387h2.045V92z"/>
	<path class="st0" d="M57.629,88.379h-3.234v2.039h3.82V92h-5.877v-8.531h5.889v1.588h-3.832v1.799h3.234V88.379z"/>
	<path class="st0" d="M68.387,85.057h-2.561V92H63.77v-6.943h-2.514v-1.588h7.131V85.057z"/>
	<path class="st0" d="M74.545,88.379h-3.234v2.039h3.82V92h-5.877v-8.531h5.889v1.588h-3.832v1.799h3.234V88.379z"/>
	<path class="st0" d="M80.814,90.406h-2.818L77.504,92h-2.197l3.129-8.531h1.934L83.521,92h-2.209L80.814,90.406z M78.488,88.818
		h1.834l-0.92-2.959L78.488,88.818z"/>
	<path class="st0" d="M86.844,83.469l1.904,5.936l1.898-5.936h2.707V92h-2.063v-1.992l0.199-4.078L89.428,92h-1.359L86,85.924
		l0.199,4.084V92h-2.057v-8.531H86.844z"/>
</g>
</svg>
