<?xml version="1.0" encoding="utf-8"?>
<!-- Generator: Adobe Illustrator 16.0.0, SVG Export Plug-In . SVG Version: 6.00 Build 0)  -->
<!DOCTYPE svg PUBLIC "-//W3C//DTD SVG 1.1//EN" "http://www.w3.org/Graphics/SVG/1.1/DTD/svg11.dtd">
<svg version="1.1" id="Layer_1" xmlns="http://www.w3.org/2000/svg" xmlns:xlink="http://www.w3.org/1999/xlink" x="0px" y="0px"
	 width="100px" height="100px" viewBox="0 0 100 100" style="enable-background:new 0 0 100 100;" xml:space="preserve">
<style type="text/css">
<![CDATA[
	.st0{fill:#3ABFE6;}
]]>
</style>
<path id="connection-4" class="st0" d="M50,73.571l5.379-17.143H37.5l27.434-30l-5.729,17.143H75L50,73.571z M56.25,5
	C34.216,5,16.044,21.774,13.013,43.571H0l16.667,25.354l16.667-25.354H21.472c2.962-17.021,17.391-30,34.778-30
	c19.527,0,35.417,16.341,35.417,36.429c0,20.085-15.89,36.429-35.417,36.429c-12.561,0-23.592-6.784-29.879-16.955l-5,7.605
	C29.354,87.943,41.988,95,56.25,95C80.403,95,100,74.848,100,50C100,25.152,80.403,5,56.25,5z"/>
</svg>
